<svg xmlns="http://www.w3.org/2000/svg" viewBox="0 0 26.89 26.89"><defs><style>.cls-1{fill:#fff;}</style></defs><title>alert-info</title><g id="Layer_2" data-name="Layer 2"><g id="Layer_1-2" data-name="Layer 1"><path class="cls-1" d="M13.44,0A13.45,13.45,0,1,0,26.89,13.44,13.44,13.44,0,0,0,13.44,0Zm0,24.82A11.38,11.38,0,1,1,24.82,13.44,11.38,11.38,0,0,1,13.44,24.82Z"/><path class="cls-1" d="M13.44,11.44a.94.94,0,0,0-1,.8V19.6a.94.94,0,0,0,1,.81,1,1,0,0,0,1-.81V12.24A1,1,0,0,0,13.44,11.44Z"/><circle class="cls-1" cx="13.44" cy="8.18" r="1.07"/></g></g></svg>