<svg xmlns="http://www.w3.org/2000/svg" viewBox="0 0 26.89 26.89"><defs><style>.cls-1{fill:#fff;}</style></defs><title>alert-success</title><g id="Layer_2" data-name="Layer 2"><g id="Layer_1-2" data-name="Layer 1"><path class="cls-1" d="M13.44,0A13.45,13.45,0,1,0,26.89,13.44,13.44,13.44,0,0,0,13.44,0Zm0,24.82A11.38,11.38,0,1,1,24.82,13.44,11.38,11.38,0,0,1,13.44,24.82Z"/><path class="cls-1" d="M17.44,9.53l-5,6.69L10,14a1,1,0,1,0-1.39,1.52l3.25,3a1,1,0,0,0,.82.25,1,1,0,0,0,.82-.4l5.62-7.54a1,1,0,0,0-.22-1.45A1,1,0,0,0,17.44,9.53Z"/></g></g></svg>