<svg xmlns="http://www.w3.org/2000/svg" viewBox="0 0 14.22 22.22"><defs><style>.cls-1{fill:#1474ff;}</style></defs><title>icon-tutorial-tip</title><g id="Layer_2" data-name="Layer 2"><g id="Layer_1-2" data-name="Layer 1"><path class="cls-1" d="M7.09,0A7.1,7.1,0,0,0,0,7.09,6.9,6.9,0,0,0,.21,8.77a6.81,6.81,0,0,0,1,2.27l.35.59c.14.25.3.49.44.72a4.79,4.79,0,0,1,1,2.86v2.92a1.53,1.53,0,0,0,1.24,1.5,2.79,2.79,0,0,0,2.85,2.59A2.8,2.8,0,0,0,10,19.63a1.52,1.52,0,0,0,1.24-1.5V15.21a4.78,4.78,0,0,1,1-2.86c.14-.23.28-.47.45-.72A5.41,5.41,0,0,1,13,11,6.91,6.91,0,0,0,14,8.8a7.21,7.21,0,0,0,.21-1.71A7.16,7.16,0,0,0,7.09,0ZM9.94,15.93H4.23v-.72a2.55,2.55,0,0,0,0-.4H9.94c0,.14,0,.26,0,.4v.72Zm-.26,2.48H4.49a.26.26,0,0,1-.26-.26v-1H9.94v1A.26.26,0,0,1,9.68,18.41ZM7.09,21a1.48,1.48,0,0,1-1.57-1.31H8.68A1.5,1.5,0,0,1,7.09,21ZM12.75,8.52a6.08,6.08,0,0,1-.84,1.89,4.91,4.91,0,0,0-.35.61c-.14.26-.28.49-.42.7a8.72,8.72,0,0,0-.94,1.85H4a7.88,7.88,0,0,0-.94-1.85c-.14-.21-.28-.44-.42-.7s-.25-.42-.35-.61a6,6,0,0,1-.86-1.89,5.7,5.7,0,0,1-.19-1.41,5.85,5.85,0,0,1,11.7,0A6,6,0,0,1,12.75,8.52Z"/><path class="cls-1" d="M6.43,2.83A4.11,4.11,0,0,0,3,6.25a.62.62,0,0,0,.54.7h.1a.62.62,0,0,0,.6-.54A2.8,2.8,0,0,1,6.6,4.05a.62.62,0,0,0,.53-.7A.6.6,0,0,0,6.43,2.83Z"/></g></g></svg>