<svg width="146" height="43" viewBox="0 0 146 43" fill="none" xmlns="http://www.w3.org/2000/svg">
<path d="M140.063 43H5.6875C2.6775 43 0.3125 40.635 0.3125 37.625V5.375C0.3125 2.365 2.6775 0 5.6875 0H140.063C143.073 0 145.438 2.365 145.438 5.375V37.625C145.438 40.635 143.073 43 140.063 43Z" fill="#A5F3FC" fill-opacity="0.5"/>
<path d="M140.063 0.86C142.535 0.86 144.578 2.9025 144.578 5.375V37.625C144.578 40.0975 142.535 42.14 140.063 42.14H5.6875C3.215 42.14 1.1725 40.0975 1.1725 37.625V5.375C1.1725 2.9025 3.215 0.86 5.6875 0.86H140.063ZM140.063 0H5.6875C2.6775 0 0.3125 2.4725 0.3125 5.375V37.625C0.3125 40.635 2.6775 43 5.6875 43H140.063C143.073 43 145.438 40.635 145.438 37.625V5.375C145.438 2.4725 143.073 0 140.063 0Z" fill="#A6A6A6"/>
<path d="M51.2664 10.9635C51.2664 11.8235 51.0514 12.576 50.5139 13.1135C49.8689 13.7585 49.1164 14.081 48.1489 14.081C47.1814 14.081 46.4289 13.7585 45.7839 13.1135C45.1389 12.4685 44.8164 11.716 44.8164 10.7485C44.8164 9.78102 45.1389 9.02852 45.7839 8.38352C46.4289 7.73852 47.1814 7.41602 48.1489 7.41602C48.5789 7.41602 49.0089 7.52352 49.4389 7.73852C49.8689 7.95352 50.1914 8.16852 50.4064 8.49102L49.8689 9.02852C49.4389 8.49102 48.9014 8.27602 48.1489 8.27602C47.5039 8.27602 46.8589 8.49102 46.4289 9.02852C45.8914 9.45852 45.6764 10.1035 45.6764 10.856C45.6764 11.6085 45.8914 12.2535 46.4289 12.6835C46.9664 13.1135 47.5039 13.436 48.1489 13.436C48.9014 13.436 49.4389 13.221 49.9764 12.6835C50.2989 12.361 50.5139 11.931 50.5139 11.3935H48.1489V10.5335H51.2664V10.9635ZM56.2114 8.27602H53.3089V10.3185H55.9964V11.071H53.3089V13.1135H56.2114V13.9735H52.4489V7.52352H56.2114V8.27602ZM59.7589 13.9735H58.8989V8.27602H57.0714V7.52352H61.5864V8.27602H59.7589V13.9735ZM64.7039 13.9735V7.52352H65.5639V13.9735H64.7039ZM69.2189 13.9735H68.3589V8.27602H66.5314V7.52352H70.9389V8.27602H69.1114V13.9735H69.2189ZM79.4314 13.1135C78.7864 13.7585 78.0339 14.081 77.0664 14.081C76.0989 14.081 75.3464 13.7585 74.7014 13.1135C74.0564 12.4685 73.7339 11.716 73.7339 10.7485C73.7339 9.78102 74.0564 9.02852 74.7014 8.38352C75.3464 7.73852 76.0989 7.41602 77.0664 7.41602C78.0339 7.41602 78.7864 7.73852 79.4314 8.38352C80.0764 9.02852 80.3989 9.78102 80.3989 10.7485C80.3989 11.716 80.0764 12.4685 79.4314 13.1135ZM75.3464 12.576C75.7764 13.006 76.4214 13.3285 77.0664 13.3285C77.7114 13.3285 78.3564 13.1135 78.7864 12.576C79.2164 12.146 79.5389 11.501 79.5389 10.7485C79.5389 9.99602 79.3239 9.35102 78.7864 8.92102C78.3564 8.49102 77.7114 8.16852 77.0664 8.16852C76.4214 8.16852 75.7764 8.38352 75.3464 8.92102C74.9164 9.35102 74.5939 9.99602 74.5939 10.7485C74.5939 11.501 74.8089 12.146 75.3464 12.576ZM81.5814 13.9735V7.52352H82.5489L85.6664 12.576V7.52352H86.5264V13.9735H85.6664L82.3339 8.70602V13.9735H81.5814Z" fill="#164E63" stroke="#A5F3FC" stroke-opacity="0.5" stroke-width="0.215" stroke-miterlimit="10"/>
<path d="M73.5182 23.4334C70.9382 23.4334 68.8957 25.3684 68.8957 28.0559C68.8957 30.6359 70.9382 32.6784 73.5182 32.6784C76.0982 32.6784 78.1407 30.7434 78.1407 28.0559C78.1407 25.2609 76.0982 23.4334 73.5182 23.4334ZM73.5182 30.7434C72.1207 30.7434 70.9382 29.5609 70.9382 27.9484C70.9382 26.3359 72.1207 25.1534 73.5182 25.1534C74.9157 25.1534 76.0982 26.2284 76.0982 27.9484C76.0982 29.5609 74.9157 30.7434 73.5182 30.7434ZM63.5207 23.4334C60.9407 23.4334 58.8982 25.3684 58.8982 28.0559C58.8982 30.6359 60.9407 32.6784 63.5207 32.6784C66.1007 32.6784 68.1432 30.7434 68.1432 28.0559C68.1432 25.2609 66.1007 23.4334 63.5207 23.4334ZM63.5207 30.7434C62.1232 30.7434 60.9407 29.5609 60.9407 27.9484C60.9407 26.3359 62.1232 25.1534 63.5207 25.1534C64.9182 25.1534 66.1007 26.2284 66.1007 27.9484C66.1007 29.5609 64.9182 30.7434 63.5207 30.7434ZM51.5882 24.8309V26.7659H56.2107C56.1032 27.8409 55.6732 28.7009 55.1357 29.2384C54.4907 29.8834 53.4157 30.6359 51.5882 30.6359C48.6857 30.6359 46.5357 28.3784 46.5357 25.4759C46.5357 22.5734 48.7932 20.3159 51.5882 20.3159C53.0932 20.3159 54.2757 20.9609 55.1357 21.7134L56.5332 20.3159C55.3507 19.2409 53.8457 18.3809 51.6957 18.3809C47.8257 18.3809 44.4932 21.6059 44.4932 25.4759C44.4932 29.3459 47.8257 32.5709 51.6957 32.5709C53.8457 32.5709 55.3507 31.9259 56.6407 30.5284C57.9307 29.2384 58.3607 27.4109 58.3607 26.0134C58.3607 25.5834 58.3607 25.1534 58.2532 24.8309H51.5882ZM100.393 26.3359C99.9632 25.2609 98.8882 23.4334 96.5232 23.4334C94.1582 23.4334 92.2232 25.2609 92.2232 28.0559C92.2232 30.6359 94.1582 32.6784 96.7382 32.6784C98.7807 32.6784 100.071 31.3884 100.501 30.6359L98.9957 29.5609C98.4582 30.3134 97.8132 30.8509 96.7382 30.8509C95.6632 30.8509 95.0182 30.4209 94.4807 29.4534L100.608 26.8734L100.393 26.3359ZM94.1582 27.8409C94.1582 26.1209 95.5557 25.1534 96.5232 25.1534C97.2757 25.1534 98.0282 25.5834 98.2432 26.1209L94.1582 27.8409ZM89.1057 32.2484H91.1482V18.8109H89.1057V32.2484ZM85.8807 24.4009C85.3432 23.8634 84.4832 23.3259 83.4082 23.3259C81.1507 23.3259 79.0007 25.3684 79.0007 27.9484C79.0007 30.5284 81.0432 32.4634 83.4082 32.4634C84.4832 32.4634 85.3432 31.9259 85.7732 31.3884H85.8807V32.0334C85.8807 33.7534 84.9132 34.7209 83.4082 34.7209C82.2257 34.7209 81.3657 33.8609 81.1507 33.1084L79.4307 33.8609C79.9682 35.0434 81.2582 36.5484 83.5157 36.5484C85.8807 36.5484 87.8157 35.1509 87.8157 31.8184V23.6484H85.8807V24.4009ZM83.5157 30.7434C82.1182 30.7434 80.9357 29.5609 80.9357 27.9484C80.9357 26.3359 82.1182 25.1534 83.5157 25.1534C84.9132 25.1534 85.9882 26.3359 85.9882 27.9484C85.9882 29.5609 84.9132 30.7434 83.5157 30.7434ZM109.746 18.8109H104.908V32.2484H106.951V27.1959H109.746C112.003 27.1959 114.153 25.5834 114.153 23.0034C114.153 20.4234 112.003 18.8109 109.746 18.8109ZM109.853 25.2609H106.951V20.6384H109.853C111.358 20.6384 112.218 21.9284 112.218 22.8959C112.111 24.0784 111.251 25.2609 109.853 25.2609ZM122.216 23.3259C120.711 23.3259 119.206 23.9709 118.668 25.3684L120.496 26.1209C120.926 25.3684 121.571 25.1534 122.323 25.1534C123.398 25.1534 124.366 25.7984 124.473 26.8734V26.9809C124.151 26.7659 123.291 26.4434 122.431 26.4434C120.496 26.4434 118.561 27.5184 118.561 29.4534C118.561 31.2809 120.173 32.4634 121.893 32.4634C123.291 32.4634 123.936 31.8184 124.473 31.1734H124.581V32.2484H126.516V27.0884C126.301 24.7234 124.473 23.3259 122.216 23.3259ZM122.001 30.7434C121.356 30.7434 120.388 30.4209 120.388 29.5609C120.388 28.4859 121.571 28.1634 122.538 28.1634C123.398 28.1634 123.828 28.3784 124.366 28.5934C124.151 29.8834 123.076 30.7434 122.001 30.7434ZM133.288 23.6484L131.031 29.4534H130.923L128.558 23.6484H126.408L129.956 31.8184L127.913 36.3334H129.956L135.438 23.6484H133.288ZM115.228 32.2484H117.271V18.8109H115.228V32.2484Z" fill="#164E63"/>
<path d="M11.4945 8.0625C11.172 8.385 11.0645 8.9225 11.0645 9.5675V33.325C11.0645 33.97 11.2795 34.5075 11.602 34.83L11.7095 34.9375L25.0395 21.6075V21.3925L11.4945 8.0625Z" fill="url(#paint0_linear_7_6)"/>
<path d="M29.3401 26.1209L24.9326 21.7134V21.3909L29.3401 16.9834L29.4476 17.0909L34.7151 20.1009C36.2201 20.9609 36.2201 22.3584 34.7151 23.2184L29.3401 26.1209Z" fill="url(#paint1_linear_7_6)"/>
<path d="M29.4457 26.014L24.9307 21.499L11.4932 34.9365C12.0307 35.474 12.7832 35.474 13.7507 35.044L29.4457 26.014Z" fill="url(#paint2_linear_7_6)"/>
<path d="M29.4457 16.9849L13.7507 8.06236C12.7832 7.52486 12.0307 7.63236 11.4932 8.16986L24.9307 21.4999L29.4457 16.9849Z" fill="url(#paint3_linear_7_6)"/>
<path opacity="0.2" d="M29.3382 25.9062L13.7507 34.7212C12.8907 35.2587 12.1382 35.1512 11.6007 34.7212L11.4932 34.8288L11.6007 34.9362C12.1382 35.3663 12.8907 35.4738 13.7507 34.9362L29.3382 25.9062Z" fill="#164E63"/>
<path opacity="0.12" d="M11.4945 34.7215C11.172 34.399 11.0645 33.8615 11.0645 33.2165V33.324C11.0645 33.969 11.2795 34.5065 11.602 34.829V34.7215H11.4945ZM34.7145 22.8965L29.3395 25.9065L29.447 26.014L34.7145 23.004C35.467 22.574 35.7895 22.0365 35.7895 21.499C35.7895 22.0365 35.3595 22.4665 34.7145 22.8965Z" fill="#164E63"/>
<path opacity="0.25" d="M13.752 8.16939L34.7145 20.1019C35.3595 20.5319 35.7895 20.9619 35.7895 21.4994C35.7895 20.9619 35.467 20.4244 34.7145 19.9944L13.752 8.06189C12.247 7.20189 11.0645 7.84689 11.0645 9.56689V9.67439C11.0645 8.06189 12.247 7.30939 13.752 8.16939Z" fill="#A5F3FC" fill-opacity="0.5"/>
<defs>
<linearGradient id="paint0_linear_7_6" x1="23.7495" y1="9.36325" x2="5.70774" y2="27.4039" gradientUnits="userSpaceOnUse">
<stop stop-color="#00A0FF"/>
<stop offset="0.007" stop-color="#00A1FF"/>
<stop offset="0.26" stop-color="#00BEFF"/>
<stop offset="0.512" stop-color="#00D2FF"/>
<stop offset="0.76" stop-color="#00DFFF"/>
<stop offset="1" stop-color="#00E3FF"/>
</linearGradient>
<linearGradient id="paint1_linear_7_6" x1="36.6867" y1="21.4995" x2="10.6749" y2="21.4995" gradientUnits="userSpaceOnUse">
<stop stop-color="#FFE000"/>
<stop offset="0.409" stop-color="#FFBD00"/>
<stop offset="0.775" stop-color="#FFA500"/>
<stop offset="1" stop-color="#FF9C00"/>
</linearGradient>
<linearGradient id="paint2_linear_7_6" x1="27.0022" y1="23.9672" x2="2.53734" y2="48.4321" gradientUnits="userSpaceOnUse">
<stop stop-color="#FF3A44"/>
<stop offset="1" stop-color="#C31162"/>
</linearGradient>
<linearGradient id="paint3_linear_7_6" x1="8.15743" y1="0.18906" x2="19.0827" y2="11.1143" gradientUnits="userSpaceOnUse">
<stop stop-color="#32A071"/>
<stop offset="0.069" stop-color="#2DA771"/>
<stop offset="0.476" stop-color="#15CF74"/>
<stop offset="0.801" stop-color="#06E775"/>
<stop offset="1" stop-color="#00F076"/>
</linearGradient>
</defs>
</svg>
