<?xml version="1.0" standalone="no"?>
<!DOCTYPE svg PUBLIC "-//W3C//DTD SVG 20010904//EN"
 "http://www.w3.org/TR/2001/REC-SVG-20010904/DTD/svg10.dtd">
<svg version="1.0" xmlns="http://www.w3.org/2000/svg"
 width="90.000000pt" height="90.000000pt" viewBox="0 0 90.000000 90.000000"
 preserveAspectRatio="xMidYMid meet">

<g transform="translate(0.000000,90.000000) scale(0.100000,-0.100000)"
fill="#000000" stroke="none">
<path d="M740 870 c-16 -10 -13 -12 33 -14 26 -2 27 -1 11 11 -21 15 -24 16
-44 3z"/>
<path d="M817 836 c5 -15 3 -17 -8 -11 -8 5 -4 -3 8 -16 49 -54 53 -80 53
-359 0 -278 -4 -306 -52 -357 -16 -17 -18 -23 -7 -23 9 0 5 -8 -11 -21 -21
-17 -21 -18 -4 -10 36 17 73 69 89 123 12 40 15 105 15 288 0 264 -9 316 -61
373 -19 21 -27 25 -22 13z"/>
<path d="M451 748 c-27 -29 -29 -34 -13 -40 9 -4 33 -7 52 -8 l35 -2 -30 -9
c-35 -10 -199 -14 -215 -4 -29 18 2 -78 34 -104 14 -12 16 -10 16 8 0 47 66
102 85 72 3 -5 20 -8 38 -7 17 2 24 1 14 -1 -10 -2 -28 -10 -41 -17 -18 -9
-21 -16 -15 -34 9 -25 8 -24 72 -27 40 -1 47 1 41 14 -18 43 -17 61 5 61 17 0
21 -6 22 -35 1 -19 3 -39 4 -45 1 -5 3 -32 4 -60 1 -48 2 -50 30 -46 43 5 55
15 39 34 -11 13 -11 14 1 7 11 -6 13 -2 9 19 -4 20 -1 26 13 26 24 0 24 12 0
27 -10 6 -21 29 -25 52 -3 22 -14 46 -25 53 -10 7 -21 23 -25 36 -8 23 -60 62
-83 62 -7 0 -26 -15 -42 -32z"/>
<path d="M371 535 c0 -16 3 -24 6 -17 9 22 23 13 24 -15 1 -23 2 -24 6 -6 4
22 4 22 24 2 11 -11 19 -33 19 -51 1 -24 3 -29 9 -18 12 22 1 80 -15 80 -7 0
-16 11 -20 25 -7 27 -19 33 -27 13 -4 -10 -8 -9 -16 2 -9 12 -11 9 -10 -15z"/>
<path d="M418 402 c-17 -2 -28 -9 -28 -19 0 -11 3 -13 13 -5 7 6 33 12 57 14
38 3 41 4 15 8 -16 3 -42 4 -57 2z"/>
<path d="M357 366 c-5 -15 -6 -31 -3 -34 8 -8 18 25 14 45 -3 13 -6 10 -11
-11z"/>
<path d="M424 290 c-3 -14 -9 -43 -14 -65 -11 -48 3 -64 51 -60 37 3 51 21 36
46 -8 14 -8 27 1 52 18 49 16 52 -28 52 -36 0 -42 -3 -46 -25z"/>
<path d="M246 195 c4 -8 8 -15 10 -15 2 0 4 7 4 15 0 8 -4 15 -10 15 -5 0 -7
-7 -4 -15z"/>
<path d="M278 97 c-10 -23 -18 -45 -18 -49 0 -4 41 -8 90 -10 l90 -3 0 37 c0
40 -3 42 -80 51 -19 2 -42 7 -50 11 -11 4 -20 -6 -32 -37z"/>
<path d="M526 52 c5 -17 55 -24 70 -9 4 4 -3 7 -15 7 -12 0 -31 4 -41 10 -15
8 -17 6 -14 -8z"/>
<path d="M740 30 c8 -5 20 -10 25 -10 6 0 3 5 -5 10 -8 5 -19 10 -25 10 -5 0
-3 -5 5 -10z"/>
</g>
</svg>
